<?xml version="1.0" encoding="utf-8"?>
<!-- Generator: Adobe Illustrator 27.0.1, SVG Export Plug-In . SVG Version: 6.00 Build 0)  -->
<svg version="1.1" id="Layer_1" xmlns="http://www.w3.org/2000/svg" xmlns:xlink="http://www.w3.org/1999/xlink" x="0px" y="0px"
	 viewBox="0 0 700 700" style="enable-background:new 0 0 700 700;" xml:space="preserve">
<g>
	<path d="M248.2,321.1c1.2-1.4,2.6-3.4,4.6-6.2c4.5-6.7,0.1-22.3-0.9-25.5c0-0.7-0.6-1.2-1.3-1.2h-16.8c-0.7,0-1.2,0.5-1.3,1.2
		c-0.9,3.1-5.4,18.8-0.9,25.5c0.1,0.1,0.2,0.3,0.3,0.4c2.3,0.5,4.6,1,7.1,1.2C242.6,316.9,245.8,318.6,248.2,321.1L248.2,321.1z"/>
	<path d="M232.7,351.9c-0.8,0.3-1.6,1.2-1.4,1.6H253c0.2-0.4-0.6-1.2-1.4-1.6c-0.8-0.3-3.9-0.5-6.7-4.9c-0.3-0.4-0.5-0.8-0.6-1.3
		c-1.6,0.8-3.3,1.4-5.2,1.6C236.5,351.4,233.6,351.5,232.7,351.9L232.7,351.9z"/>
	<path d="M205.8,168.1c18.8,4.4,30.5,23.2,26.1,41.9c-4.4,18.8-23.2,30.5-41.9,26.1c-18.8-4.4-30.5-23.1-26.1-41.9
		S187.1,163.7,205.8,168.1"/>
	<path d="M151.3,378.4c4,13,8.9,34.5,8.9,60.2c0,20.5-3.1,43.7-12.1,67.9c-3.7,10.1,1.4,21.2,11.4,24.9c2.2,0.8,4.5,1.2,6.7,1.2
		c7.9,0,15.3-4.8,18.2-12.7c10.8-29.2,14.5-57,14.5-81.5c-0.1-38.9-9.2-68.8-14.1-82.2c-1.4-10.2-1.1-21,0-31.7
		c-6.3-5.7-11.9-12.3-16.8-19.8c-10.1-15.7-13.9-30-15.1-35.4l-0.1-0.1c-1.7-8.5,3.9-16.7,12.2-18.3c1-0.2,2-0.3,3-0.3
		c7.4,0,13.8,5.2,15.2,12.5l0.1,0.1c0,0.1,0.1,0.3,0.1,0.6c0.2,0.7,0.5,1.8,0.9,3.2c0.8,2.6,2.2,6.7,4.4,11.4
		c0.8,1.7,1.7,3.5,2.8,5.4c0.5-2.4,1-4.8,1.4-7c4.4-15.5-1.4-33.9-14.6-37.3c-13.3-3.3-32.4,3.9-40.3,26.6
		c-10.6,31.3-12.9,51.7-8.8,86.2C132.7,369.3,141.5,375.9,151.3,378.4L151.3,378.4z"/>
	<path d="M181.5,268.1c-0.5-1.4-0.7-2.6-0.9-3.3c-0.1-0.4-0.1-0.7-0.2-0.8c0-0.1,0-0.1,0-0.1l0,0c-1.4-6.7-7.8-11.1-14.6-9.7
		c-6.7,1.3-11.1,7.8-9.8,14.6c0.2,0.9,3.3,16.9,14.7,34.5c5.7,8.8,13.5,18,24.3,25.6c10.7,7.6,24.3,13.4,40.7,15.4
		c0.5,0.1,1,0.1,1.5,0.1c6.2,0,11.6-4.6,12.3-10.9c0.8-6.8-4-13-10.8-13.8c-12.3-1.5-21.7-5.6-29.3-11c-11.4-8-18.8-19.3-23.2-28.7
		C183.8,275.2,182.4,271.1,181.5,268.1L181.5,268.1z"/>
	<path d="M446.2,319.9c-5.2,2-8.6,7.4-7.9,13.2c0.7,5.4,4.7,9.5,9.7,10.5c-0.1,0.1-0.1,0.1-0.1,0.2c-2.7,4.4-5.7,4.6-6.7,4.9
		c-0.8,0.3-1.6,1.2-1.4,1.6h21.7c0.2-0.4-0.6-1.2-1.4-1.6c-0.8-0.3-3.9-0.5-6.7-4.9c0-0.1-0.1-0.1-0.1-0.2
		c17.1-2.3,31.1-8.6,41.8-16.8c7.3-5.5,13.1-11.9,17.8-18.3c1.6,9.6,2.7,19.6,3,29.5c5.4-12.5,8.1-24.7,8.2-36.7
		c0-16.9-5.7-27.1-5.7-27.2c-4.2-7.3-1.8-16.8,5.4-21.1c2.4-1.4,5.2-2.2,8-2.2c5.4,0,10.6,2.9,13.3,7.6c1.7,2.9,10,18.3,10.1,43
		c0.1,17.5-4.4,45.1-26.1,76.9c-2.9,4.2-7.7,6.8-12.9,6.8c-3.1,0-6.1-0.9-8.7-2.7l0,0c-3.5,14.9-6.5,34.1-6.5,56.3
		c0,24.3,3.7,52.3,14.5,81.5c2.9,7.8,10.3,12.7,18.2,12.7c2.2,0,4.5-0.4,6.7-1.2c10.1-3.7,15.1-14.9,11.5-24.9
		c-9-24.3-12.1-47.5-12.1-67.9c0-21.9,3.5-40.7,7-53.9c0.6-2.3,1.2-4.4,1.8-6.3c9.8-2.5,18.7-9.1,21.9-26c4-34.5,1.8-54.8-8.8-86.2
		c-7.8-22.7-27-29.9-40.3-26.6c-10.1,2.5-15.9,14-16.1,26.1c-1.3,5.7-3.9,14.1-8.8,22.5c-4,7-9.6,13.9-17.2,19.5
		c-6,4.4-13.3,8-22.6,10.2c1.1-1.4,2.6-3.3,4.4-6.1c4.5-6.7,0.1-22.3-0.9-25.5c0-0.7-0.6-1.2-1.3-1.2h-16.8c-0.7,0-1.2,0.5-1.3,1.2
		c-0.9,3.1-5.4,18.8-0.9,25.5C443,316,444.9,318.2,446.2,319.9L446.2,319.9z"/>
	<path d="M536,194.2c4.4,18.8-7.3,37.5-26.1,41.9c-18.8,4.4-37.5-7.3-41.9-26.1c-4.4-18.8,7.3-37.5,26.1-41.9
		C512.8,163.7,531.6,175.4,536,194.2"/>
	<path d="M516.1,382c4,0,7.9-1.9,10.3-5.4c19.6-28.9,25.6-55,25.6-75.1c0-24.9-8.8-40.1-9.6-41.4c-3.5-5.9-11.2-7.8-17-4.3
		s-7.8,11-4.4,16.9l0,0l0,0c0.2,0.3,6.1,11.1,6.1,28.8c-0.1,15.3-4.2,36-21.3,61.2c-3.9,5.7-2.3,13.4,3.3,17.2
		C511.2,381.2,513.7,382,516.1,382L516.1,382z M521,272.7L521,272.7L521,272.7z"/>
	<path d="M384.6,202.6c0,19.3-15.7,34.9-34.9,34.9c-19.3,0-34.9-15.7-34.9-34.9c0-19.3,15.7-34.9,34.9-34.9
		C368.9,167.7,384.6,183.3,384.6,202.6"/>
	<path d="M269.3,304.1L269.3,304.1L269.3,304.1L269.3,304.1C269.3,304.1,269.3,304.1,269.3,304.1c2,9.9,8,19.3,17.4,26.9
		c9.5,7.6,22.5,13.9,39.8,18.8c1.1,0.3,2.3,0.5,3.4,0.5c5.4,0,10.4-3.6,11.9-9.1c1.9-6.6-2-13.4-8.6-15.3
		c-15.1-4.2-25-9.4-30.9-14.2c-5.9-4.8-7.9-8.9-8.7-12.5c0,0,0,0,0-0.1c-0.2-1-0.3-2.2-0.3-3.3c0-1.2,0.1-2.5,0.4-3.8
		c0.9-4.4,3.4-9.3,6.7-13.4v27c1,1.2,2.3,2.3,3.9,3.7c3.4,2.7,9.3,6.5,19.2,10.2c-4.4-6.7,0-22.3,1-25.3c0-0.7,0.6-1.2,1.3-1.2h16.8
		c0.7,0,1.2,0.5,1.3,1.2c0.9,3.1,5.4,18.8,0.9,25.5c-2,3-3.6,5-4.8,6.5c1.4,1.2,2.5,2.5,3.5,4.2c2,3.6,2.5,7.8,1.4,11.8
		c-1.2,4.2-4.1,7.7-7.9,9.6v0.1c2.7,4.4,5.7,4.6,6.7,4.9c0.8,0.3,1.6,1.2,1.4,1.6h-21.7c-0.2-0.4,0.6-1.2,1.4-1.6
		c0.7-0.3,3.1-0.4,5.5-3.3c-0.1,0-0.2,0-0.3,0c-1.4,0-2.9-0.2-4.2-0.6c-9.6-2.7-18-5.9-25.2-9.5v170.2c0,10.6,8.6,19.2,19.2,19.2
		c10.6,0,19.2-8.6,19.2-19.2V373.5h8.7l23.7,143.2c1.8,10.4,11.6,17.6,22.1,15.8c10.4-1.8,17.6-11.6,15.8-22.1l-24.7-148.9l0,0
		v-75.9c0.6,1.2,1.2,2.5,1.8,3.9c6.6,15.9,12.8,43.6,12.7,90c0,6.9,5.5,12.4,12.4,12.4c6.9,0,12.4-5.5,12.4-12.4
		c-0.1-61-9.9-94.1-21.5-113.1c-5.8-9.5-12.2-15.3-17.6-18.6c-2.9-1.8-5.5-2.8-7.5-3.5c-1.4-0.7-3.1-1-4.8-1h-60c-1,0-2,0.1-2.9,0.4
		c-4.8,0.7-8.4,2.6-12.3,4.8c-6.9,4.2-13.6,10.5-19.1,18.4c-5,7.2-8.9,16-9.7,26c-0.1,1-0.1,1.9-0.1,2.9
		C268.5,298.5,268.7,301.3,269.3,304.1L269.3,304.1z"/>
</g>
</svg>
